<mxfile host="65bd71144e">
    <diagram id="jdcI3mkMMGWf8a6bFuUW" name="Page-1">
        <mxGraphModel dx="-397" dy="908" grid="1" gridSize="10" guides="1" tooltips="1" connect="1" arrows="1" fold="1" page="1" pageScale="1" pageWidth="850" pageHeight="1100" math="0" shadow="0">
            <root>
                <mxCell id="0"/>
                <mxCell id="1" parent="0"/>
                <mxCell id="8" value="6" style="rounded=0;whiteSpace=wrap;html=1;fontSize=17;strokeWidth=2;fontStyle=1;strokeColor=none;" parent="1" vertex="1">
                    <mxGeometry x="1860.85" y="140" width="29.58333333333333" height="32.5" as="geometry"/>
                </mxCell>
                <mxCell id="9" value="7" style="rounded=0;whiteSpace=wrap;html=1;fontSize=17;strokeWidth=2;fontStyle=1;strokeColor=none;" parent="1" vertex="1">
                    <mxGeometry x="1860.85" y="172.5" width="29.58333333333333" height="32.5" as="geometry"/>
                </mxCell>
                <mxCell id="10" value="8" style="rounded=0;whiteSpace=wrap;html=1;fontSize=17;strokeWidth=2;fontStyle=1;fillColor=none;strokeColor=none;" parent="1" vertex="1">
                    <mxGeometry x="1860.85" y="205" width="29.58333333333333" height="32.5" as="geometry"/>
                </mxCell>
                <mxCell id="11" value="9" style="rounded=0;whiteSpace=wrap;html=1;fontSize=17;strokeWidth=2;fontStyle=1;fillColor=none;strokeColor=none;" parent="1" vertex="1">
                    <mxGeometry x="1860.85" y="237.5" width="29.58333333333333" height="32.5" as="geometry"/>
                </mxCell>
                <mxCell id="18" value="0" style="rounded=0;whiteSpace=wrap;html=1;fontSize=17;strokeWidth=2;fontStyle=1;strokeColor=none;" parent="1" vertex="1">
                    <mxGeometry x="1890.4333333333334" y="140" width="29.58333333333333" height="32.5" as="geometry"/>
                </mxCell>
                <mxCell id="19" value="1" style="rounded=0;whiteSpace=wrap;html=1;fontSize=17;strokeWidth=2;fontStyle=1;strokeColor=none;" parent="1" vertex="1">
                    <mxGeometry x="1920.0166666666664" y="140" width="29.58333333333333" height="32.5" as="geometry"/>
                </mxCell>
                <mxCell id="20" value="2" style="rounded=0;whiteSpace=wrap;html=1;fontSize=17;strokeWidth=2;fontStyle=1;strokeColor=none;" parent="1" vertex="1">
                    <mxGeometry x="1920.0166666666664" y="172.5" width="29.58333333333333" height="32.5" as="geometry"/>
                </mxCell>
                <mxCell id="21" value="3" style="rounded=0;whiteSpace=wrap;html=1;fontSize=17;strokeWidth=2;fontStyle=1;fillColor=none;strokeColor=none;" parent="1" vertex="1">
                    <mxGeometry x="1920.0166666666664" y="205" width="29.58333333333333" height="32.5" as="geometry"/>
                </mxCell>
                <mxCell id="22" value="4" style="rounded=0;whiteSpace=wrap;html=1;fontSize=17;strokeWidth=2;fontStyle=1;fillColor=none;strokeColor=none;" parent="1" vertex="1">
                    <mxGeometry x="1920.0166666666664" y="237.5" width="29.58333333333333" height="32.5" as="geometry"/>
                </mxCell>
                <mxCell id="23" value="5" style="rounded=0;whiteSpace=wrap;html=1;fontSize=17;strokeWidth=2;fontStyle=1;strokeColor=none;" parent="1" vertex="1">
                    <mxGeometry x="1949.6" y="140" width="29.58333333333333" height="32.5" as="geometry"/>
                </mxCell>
                <mxCell id="24" value="6" style="rounded=0;whiteSpace=wrap;html=1;fontSize=17;strokeWidth=2;fontStyle=1;strokeColor=none;" parent="1" vertex="1">
                    <mxGeometry x="1979.1833333333334" y="140" width="29.58333333333333" height="32.5" as="geometry"/>
                </mxCell>
                <mxCell id="25" value="7" style="rounded=0;whiteSpace=wrap;html=1;fontSize=17;strokeWidth=2;fontStyle=1;strokeColor=none;" parent="1" vertex="1">
                    <mxGeometry x="1979.1833333333334" y="172.5" width="29.58333333333333" height="32.5" as="geometry"/>
                </mxCell>
                <mxCell id="26" value="8" style="rounded=0;whiteSpace=wrap;html=1;fontSize=17;strokeWidth=2;fontStyle=1;fillColor=none;strokeColor=none;" parent="1" vertex="1">
                    <mxGeometry x="1979.1833333333334" y="205" width="29.58333333333333" height="32.5" as="geometry"/>
                </mxCell>
                <mxCell id="27" value="9" style="rounded=0;whiteSpace=wrap;html=1;fontSize=17;strokeWidth=2;fontStyle=1;fillColor=none;strokeColor=none;" parent="1" vertex="1">
                    <mxGeometry x="1979.1833333333334" y="237.5" width="29.58333333333333" height="32.5" as="geometry"/>
                </mxCell>
                <mxCell id="28" value="1" style="rounded=0;whiteSpace=wrap;html=1;fontSize=17;strokeWidth=2;fontStyle=1;strokeColor=none;" parent="1" vertex="1">
                    <mxGeometry x="1890.4333333333334" y="172.5" width="29.58333333333333" height="32.5" as="geometry"/>
                </mxCell>
                <mxCell id="29" value="6" style="rounded=0;whiteSpace=wrap;html=1;fontSize=17;strokeWidth=2;fontStyle=1;strokeColor=none;" parent="1" vertex="1">
                    <mxGeometry x="1949.6" y="172.5" width="29.58333333333333" height="32.5" as="geometry"/>
                </mxCell>
                <mxCell id="30" value="2" style="rounded=0;whiteSpace=wrap;html=1;fontSize=17;strokeWidth=2;fontStyle=1;fillColor=none;strokeColor=none;" parent="1" vertex="1">
                    <mxGeometry x="1890.4333333333334" y="205" width="29.58333333333333" height="32.5" as="geometry"/>
                </mxCell>
                <mxCell id="31" value="3" style="rounded=0;whiteSpace=wrap;html=1;fontSize=17;strokeWidth=2;fontStyle=1;fillColor=none;strokeColor=none;" parent="1" vertex="1">
                    <mxGeometry x="1890.4333333333334" y="237.5" width="29.58333333333333" height="32.5" as="geometry"/>
                </mxCell>
                <mxCell id="32" value="7" style="rounded=0;whiteSpace=wrap;html=1;fontSize=17;strokeWidth=2;fontStyle=1;fillColor=none;strokeColor=none;" parent="1" vertex="1">
                    <mxGeometry x="1949.6" y="205" width="29.58333333333333" height="32.5" as="geometry"/>
                </mxCell>
                <mxCell id="33" value="8" style="rounded=0;whiteSpace=wrap;html=1;fontSize=17;strokeWidth=2;fontStyle=1;fillColor=none;strokeColor=none;" parent="1" vertex="1">
                    <mxGeometry x="1949.6" y="237.5" width="29.58333333333333" height="32.5" as="geometry"/>
                </mxCell>
                <mxCell id="34" value="0" style="rounded=0;whiteSpace=wrap;html=1;fontSize=17;strokeWidth=2;fontStyle=1;strokeColor=none;" parent="1" vertex="1">
                    <mxGeometry x="2008.7666666666664" y="140" width="29.58333333333333" height="32.5" as="geometry"/>
                </mxCell>
                <mxCell id="35" value="1" style="rounded=0;whiteSpace=wrap;html=1;fontSize=17;strokeWidth=2;fontStyle=1;strokeColor=none;" parent="1" vertex="1">
                    <mxGeometry x="2038.35" y="140" width="29.58333333333333" height="32.5" as="geometry"/>
                </mxCell>
                <mxCell id="36" value="2" style="rounded=0;whiteSpace=wrap;html=1;fontSize=17;strokeWidth=2;fontStyle=1;strokeColor=none;" parent="1" vertex="1">
                    <mxGeometry x="2038.35" y="172.5" width="29.58333333333333" height="32.5" as="geometry"/>
                </mxCell>
                <mxCell id="37" value="3" style="rounded=0;whiteSpace=wrap;html=1;fontSize=17;strokeWidth=2;fontStyle=1;fillColor=none;strokeColor=none;" parent="1" vertex="1">
                    <mxGeometry x="2038.35" y="205" width="29.58333333333333" height="32.5" as="geometry"/>
                </mxCell>
                <mxCell id="38" value="4" style="rounded=0;whiteSpace=wrap;html=1;fontSize=17;strokeWidth=2;fontStyle=1;fillColor=none;strokeColor=none;" parent="1" vertex="1">
                    <mxGeometry x="2038.35" y="237.5" width="29.58333333333333" height="32.5" as="geometry"/>
                </mxCell>
                <mxCell id="44" value="1" style="rounded=0;whiteSpace=wrap;html=1;fontSize=17;strokeWidth=2;fontStyle=1;strokeColor=none;" parent="1" vertex="1">
                    <mxGeometry x="2008.7666666666664" y="172.5" width="29.58333333333333" height="32.5" as="geometry"/>
                </mxCell>
                <mxCell id="46" value="2" style="rounded=0;whiteSpace=wrap;html=1;fontSize=17;strokeWidth=2;fontStyle=1;fillColor=none;strokeColor=none;" parent="1" vertex="1">
                    <mxGeometry x="2008.7666666666664" y="205" width="29.58333333333333" height="32.5" as="geometry"/>
                </mxCell>
                <mxCell id="47" value="3" style="rounded=0;whiteSpace=wrap;html=1;fontSize=17;strokeWidth=2;fontStyle=1;fillColor=none;strokeColor=none;" parent="1" vertex="1">
                    <mxGeometry x="2008.7666666666664" y="237.5" width="29.58333333333333" height="32.5" as="geometry"/>
                </mxCell>
                <mxCell id="62" value="14" style="rounded=0;whiteSpace=wrap;html=1;fontSize=17;strokeWidth=2;fontStyle=1;fillColor=none;strokeColor=none;" parent="1" vertex="1">
                    <mxGeometry x="1860.85" y="367.5" width="29.58333333333333" height="32.5" as="geometry"/>
                </mxCell>
                <mxCell id="63" value="11" style="rounded=0;whiteSpace=wrap;html=1;fontSize=17;strokeWidth=2;fontStyle=1;fillColor=none;strokeColor=none;" parent="1" vertex="1">
                    <mxGeometry x="1860.85" y="270" width="29.58333333333333" height="32.5" as="geometry"/>
                </mxCell>
                <mxCell id="64" value="12" style="rounded=0;whiteSpace=wrap;html=1;fontSize=17;strokeWidth=2;fontStyle=1;fillColor=none;strokeColor=none;" parent="1" vertex="1">
                    <mxGeometry x="1860.85" y="302.5" width="29.58333333333333" height="32.5" as="geometry"/>
                </mxCell>
                <mxCell id="65" value="13" style="rounded=0;whiteSpace=wrap;html=1;fontSize=17;strokeWidth=2;fontStyle=1;fillColor=none;strokeColor=none;" parent="1" vertex="1">
                    <mxGeometry x="1860.85" y="335" width="29.58333333333333" height="32.5" as="geometry"/>
                </mxCell>
                <mxCell id="66" value="5" style="rounded=0;whiteSpace=wrap;html=1;fontSize=17;strokeWidth=2;fontStyle=1;fillColor=none;strokeColor=none;" parent="1" vertex="1">
                    <mxGeometry x="1890.4333333333334" y="270" width="29.58333333333333" height="32.5" as="geometry"/>
                </mxCell>
                <mxCell id="67" value="6" style="rounded=0;whiteSpace=wrap;html=1;fontSize=17;strokeWidth=2;fontStyle=1;fillColor=none;strokeColor=none;" parent="1" vertex="1">
                    <mxGeometry x="1920.0166666666664" y="270" width="29.58333333333333" height="32.5" as="geometry"/>
                </mxCell>
                <mxCell id="68" value="7" style="rounded=0;whiteSpace=wrap;html=1;fontSize=17;strokeWidth=2;fontStyle=1;fillColor=none;strokeColor=none;" parent="1" vertex="1">
                    <mxGeometry x="1920.0166666666664" y="302.5" width="29.58333333333333" height="32.5" as="geometry"/>
                </mxCell>
                <mxCell id="69" value="8" style="rounded=0;whiteSpace=wrap;html=1;fontSize=17;strokeWidth=2;fontStyle=1;fillColor=none;strokeColor=none;" parent="1" vertex="1">
                    <mxGeometry x="1920.0166666666664" y="335" width="29.58333333333333" height="32.5" as="geometry"/>
                </mxCell>
                <mxCell id="70" value="9" style="rounded=0;whiteSpace=wrap;html=1;fontSize=17;strokeWidth=2;fontStyle=1;fillColor=none;strokeColor=none;" parent="1" vertex="1">
                    <mxGeometry x="1920.0166666666664" y="367.5" width="29.58333333333333" height="32.5" as="geometry"/>
                </mxCell>
                <mxCell id="71" value="6" style="rounded=0;whiteSpace=wrap;html=1;fontSize=17;strokeWidth=2;fontStyle=1;fillColor=none;strokeColor=none;" parent="1" vertex="1">
                    <mxGeometry x="1890.4333333333334" y="302.5" width="29.58333333333333" height="32.5" as="geometry"/>
                </mxCell>
                <mxCell id="72" value="7" style="rounded=0;whiteSpace=wrap;html=1;fontSize=17;strokeWidth=2;fontStyle=1;fillColor=none;strokeColor=none;" parent="1" vertex="1">
                    <mxGeometry x="1890.4333333333334" y="335" width="29.58333333333333" height="32.5" as="geometry"/>
                </mxCell>
                <mxCell id="73" value="8" style="rounded=0;whiteSpace=wrap;html=1;fontSize=17;strokeWidth=2;fontStyle=1;fillColor=none;strokeColor=none;" parent="1" vertex="1">
                    <mxGeometry x="1890.4333333333334" y="367.5" width="29.58333333333333" height="32.5" as="geometry"/>
                </mxCell>
                <mxCell id="74" value="10" style="rounded=0;whiteSpace=wrap;html=1;fontSize=17;strokeWidth=2;fontStyle=1;fillColor=#FFCCCC;strokeColor=none;" parent="1" vertex="1">
                    <mxGeometry x="1949.6" y="270" width="29.58333333333333" height="32.5" as="geometry"/>
                </mxCell>
                <mxCell id="75" value="11" style="rounded=0;whiteSpace=wrap;html=1;fontSize=17;strokeWidth=2;fontStyle=1;fillColor=none;strokeColor=none;" parent="1" vertex="1">
                    <mxGeometry x="1949.6" y="302.5" width="29.58333333333333" height="32.5" as="geometry"/>
                </mxCell>
                <mxCell id="76" value="12" style="rounded=0;whiteSpace=wrap;html=1;fontSize=17;strokeWidth=2;fontStyle=1;fillColor=none;strokeColor=none;" parent="1" vertex="1">
                    <mxGeometry x="1949.6" y="335" width="29.58333333333333" height="32.5" as="geometry"/>
                </mxCell>
                <mxCell id="77" value="13" style="rounded=0;whiteSpace=wrap;html=1;fontSize=17;strokeWidth=2;fontStyle=1;fillColor=none;strokeColor=none;" parent="1" vertex="1">
                    <mxGeometry x="1949.6" y="367.5" width="29.58333333333333" height="32.5" as="geometry"/>
                </mxCell>
                <mxCell id="78" value="14" style="rounded=0;whiteSpace=wrap;html=1;fontSize=17;strokeWidth=2;fontStyle=1;fillColor=none;strokeColor=none;" parent="1" vertex="1">
                    <mxGeometry x="1979.1833333333334" y="367.5" width="29.58333333333333" height="32.5" as="geometry"/>
                </mxCell>
                <mxCell id="79" value="11" style="rounded=0;whiteSpace=wrap;html=1;fontSize=17;strokeWidth=2;fontStyle=1;fillColor=none;strokeColor=none;" parent="1" vertex="1">
                    <mxGeometry x="1979.1833333333334" y="270" width="29.58333333333333" height="32.5" as="geometry"/>
                </mxCell>
                <mxCell id="80" value="12" style="rounded=0;whiteSpace=wrap;html=1;fontSize=17;strokeWidth=2;fontStyle=1;fillColor=none;strokeColor=none;" parent="1" vertex="1">
                    <mxGeometry x="1979.1833333333334" y="302.5" width="29.58333333333333" height="32.5" as="geometry"/>
                </mxCell>
                <mxCell id="81" value="13" style="rounded=0;whiteSpace=wrap;html=1;fontSize=17;strokeWidth=2;fontStyle=1;fillColor=none;strokeColor=none;" parent="1" vertex="1">
                    <mxGeometry x="1979.1833333333334" y="335" width="29.58333333333333" height="32.5" as="geometry"/>
                </mxCell>
                <mxCell id="82" value="5" style="rounded=0;whiteSpace=wrap;html=1;fontSize=17;strokeWidth=2;fontStyle=1;fillColor=none;strokeColor=none;" parent="1" vertex="1">
                    <mxGeometry x="2008.7666666666664" y="270" width="29.58333333333333" height="32.5" as="geometry"/>
                </mxCell>
                <mxCell id="83" value="6" style="rounded=0;whiteSpace=wrap;html=1;fontSize=17;strokeWidth=2;fontStyle=1;fillColor=none;strokeColor=none;" parent="1" vertex="1">
                    <mxGeometry x="2038.35" y="270" width="29.58333333333333" height="32.5" as="geometry"/>
                </mxCell>
                <mxCell id="84" value="7" style="rounded=0;whiteSpace=wrap;html=1;fontSize=17;strokeWidth=2;fontStyle=1;fillColor=none;strokeColor=none;" parent="1" vertex="1">
                    <mxGeometry x="2038.35" y="302.5" width="29.58333333333333" height="32.5" as="geometry"/>
                </mxCell>
                <mxCell id="85" value="8" style="rounded=0;whiteSpace=wrap;html=1;fontSize=17;strokeWidth=2;fontStyle=1;fillColor=none;strokeColor=none;" parent="1" vertex="1">
                    <mxGeometry x="2038.35" y="335" width="29.58333333333333" height="32.5" as="geometry"/>
                </mxCell>
                <mxCell id="86" value="9" style="rounded=0;whiteSpace=wrap;html=1;fontSize=17;strokeWidth=2;fontStyle=1;fillColor=none;strokeColor=none;" parent="1" vertex="1">
                    <mxGeometry x="2038.35" y="367.5" width="29.58333333333333" height="32.5" as="geometry"/>
                </mxCell>
                <mxCell id="87" value="6" style="rounded=0;whiteSpace=wrap;html=1;fontSize=17;strokeWidth=2;fontStyle=1;fillColor=none;strokeColor=none;" parent="1" vertex="1">
                    <mxGeometry x="2008.7666666666664" y="302.5" width="29.58333333333333" height="32.5" as="geometry"/>
                </mxCell>
                <mxCell id="88" value="7" style="rounded=0;whiteSpace=wrap;html=1;fontSize=17;strokeWidth=2;fontStyle=1;fillColor=none;strokeColor=none;" parent="1" vertex="1">
                    <mxGeometry x="2008.7666666666664" y="335" width="29.58333333333333" height="32.5" as="geometry"/>
                </mxCell>
                <mxCell id="89" value="8" style="rounded=0;whiteSpace=wrap;html=1;fontSize=17;strokeWidth=2;fontStyle=1;fillColor=none;strokeColor=none;" parent="1" vertex="1">
                    <mxGeometry x="2008.7666666666664" y="367.5" width="29.58333333333333" height="32.5" as="geometry"/>
                </mxCell>
                <mxCell id="104" value="" style="rounded=0;whiteSpace=wrap;html=1;fontSize=17;fontColor=#0000FF;fillColor=none;strokeWidth=3;strokeColor=#FF0000;dashed=1;" parent="1" vertex="1">
                    <mxGeometry x="1919.9400000000003" y="205" width="88.9" height="97" as="geometry"/>
                </mxCell>
                <mxCell id="115" value="" style="rounded=0;whiteSpace=wrap;html=1;fontSize=17;fontColor=#0000FF;fillColor=none;strokeWidth=3;strokeColor=#FF0000;dashed=1;" vertex="1" parent="1">
                    <mxGeometry x="1919.8700000000003" y="270.5" width="88.9" height="97" as="geometry"/>
                </mxCell>
                <mxCell id="121" value="5" style="rounded=0;whiteSpace=wrap;html=1;fontSize=17;strokeWidth=2;fontStyle=1;strokeColor=none;" vertex="1" parent="1">
                    <mxGeometry x="2159.996666666667" y="140" width="29.58333333333333" height="32.5" as="geometry"/>
                </mxCell>
                <mxCell id="122" value="6" style="rounded=0;whiteSpace=wrap;html=1;fontSize=17;strokeWidth=2;fontStyle=1;strokeColor=none;" vertex="1" parent="1">
                    <mxGeometry x="2189.58" y="140" width="29.58333333333333" height="32.5" as="geometry"/>
                </mxCell>
                <mxCell id="123" value="7" style="rounded=0;whiteSpace=wrap;html=1;fontSize=17;strokeWidth=2;fontStyle=1;strokeColor=none;" vertex="1" parent="1">
                    <mxGeometry x="2189.58" y="172.5" width="29.58333333333333" height="32.5" as="geometry"/>
                </mxCell>
                <mxCell id="124" value="8" style="rounded=0;whiteSpace=wrap;html=1;fontSize=17;strokeWidth=2;fontStyle=1;fillColor=none;strokeColor=none;" vertex="1" parent="1">
                    <mxGeometry x="2189.58" y="205" width="29.58333333333333" height="32.5" as="geometry"/>
                </mxCell>
                <mxCell id="125" value="9" style="rounded=0;whiteSpace=wrap;html=1;fontSize=17;strokeWidth=2;fontStyle=1;fillColor=none;strokeColor=none;" vertex="1" parent="1">
                    <mxGeometry x="2189.58" y="237.5" width="29.58333333333333" height="32.5" as="geometry"/>
                </mxCell>
                <mxCell id="127" value="6" style="rounded=0;whiteSpace=wrap;html=1;fontSize=17;strokeWidth=2;fontStyle=1;strokeColor=none;" vertex="1" parent="1">
                    <mxGeometry x="2159.996666666667" y="172.5" width="29.58333333333333" height="32.5" as="geometry"/>
                </mxCell>
                <mxCell id="130" value="7" style="rounded=0;whiteSpace=wrap;html=1;fontSize=17;strokeWidth=2;fontStyle=1;fillColor=none;strokeColor=none;" vertex="1" parent="1">
                    <mxGeometry x="2159.996666666667" y="205" width="29.58333333333333" height="32.5" as="geometry"/>
                </mxCell>
                <mxCell id="131" value="8" style="rounded=0;whiteSpace=wrap;html=1;fontSize=17;strokeWidth=2;fontStyle=1;fillColor=none;strokeColor=none;" vertex="1" parent="1">
                    <mxGeometry x="2159.996666666667" y="237.5" width="29.58333333333333" height="32.5" as="geometry"/>
                </mxCell>
                <mxCell id="132" value="0" style="rounded=0;whiteSpace=wrap;html=1;fontSize=17;strokeWidth=2;fontStyle=1;strokeColor=none;" vertex="1" parent="1">
                    <mxGeometry x="2219.1633333333334" y="140" width="29.58333333333333" height="32.5" as="geometry"/>
                </mxCell>
                <mxCell id="133" value="1" style="rounded=0;whiteSpace=wrap;html=1;fontSize=17;strokeWidth=2;fontStyle=1;strokeColor=none;" vertex="1" parent="1">
                    <mxGeometry x="2248.7466666666664" y="140" width="29.58333333333333" height="32.5" as="geometry"/>
                </mxCell>
                <mxCell id="134" value="2" style="rounded=0;whiteSpace=wrap;html=1;fontSize=17;strokeWidth=2;fontStyle=1;strokeColor=none;" vertex="1" parent="1">
                    <mxGeometry x="2248.7466666666664" y="172.5" width="29.58333333333333" height="32.5" as="geometry"/>
                </mxCell>
                <mxCell id="135" value="3" style="rounded=0;whiteSpace=wrap;html=1;fontSize=17;strokeWidth=2;fontStyle=1;fillColor=none;strokeColor=none;" vertex="1" parent="1">
                    <mxGeometry x="2248.7466666666664" y="205" width="29.58333333333333" height="32.5" as="geometry"/>
                </mxCell>
                <mxCell id="136" value="4" style="rounded=0;whiteSpace=wrap;html=1;fontSize=17;strokeWidth=2;fontStyle=1;fillColor=none;strokeColor=none;" vertex="1" parent="1">
                    <mxGeometry x="2248.7466666666664" y="237.5" width="29.58333333333333" height="32.5" as="geometry"/>
                </mxCell>
                <mxCell id="137" value="5" style="rounded=0;whiteSpace=wrap;html=1;fontSize=17;strokeWidth=2;fontStyle=1;strokeColor=none;" vertex="1" parent="1">
                    <mxGeometry x="2278.33" y="140" width="29.58333333333333" height="32.5" as="geometry"/>
                </mxCell>
                <mxCell id="138" value="6" style="rounded=0;whiteSpace=wrap;html=1;fontSize=17;strokeWidth=2;fontStyle=1;strokeColor=none;" vertex="1" parent="1">
                    <mxGeometry x="2307.9133333333334" y="140" width="29.58333333333333" height="32.5" as="geometry"/>
                </mxCell>
                <mxCell id="139" value="7" style="rounded=0;whiteSpace=wrap;html=1;fontSize=17;strokeWidth=2;fontStyle=1;strokeColor=none;" vertex="1" parent="1">
                    <mxGeometry x="2307.9133333333334" y="172.5" width="29.58333333333333" height="32.5" as="geometry"/>
                </mxCell>
                <mxCell id="140" value="8" style="rounded=0;whiteSpace=wrap;html=1;fontSize=17;strokeWidth=2;fontStyle=1;fillColor=none;strokeColor=none;" vertex="1" parent="1">
                    <mxGeometry x="2307.9133333333334" y="205" width="29.58333333333333" height="32.5" as="geometry"/>
                </mxCell>
                <mxCell id="141" value="9" style="rounded=0;whiteSpace=wrap;html=1;fontSize=17;strokeWidth=2;fontStyle=1;fillColor=none;strokeColor=none;" vertex="1" parent="1">
                    <mxGeometry x="2307.9133333333334" y="237.5" width="29.58333333333333" height="32.5" as="geometry"/>
                </mxCell>
                <mxCell id="142" value="1" style="rounded=0;whiteSpace=wrap;html=1;fontSize=17;strokeWidth=2;fontStyle=1;strokeColor=none;" vertex="1" parent="1">
                    <mxGeometry x="2219.1633333333334" y="172.5" width="29.58333333333333" height="32.5" as="geometry"/>
                </mxCell>
                <mxCell id="143" value="6" style="rounded=0;whiteSpace=wrap;html=1;fontSize=17;strokeWidth=2;fontStyle=1;strokeColor=none;" vertex="1" parent="1">
                    <mxGeometry x="2278.33" y="172.5" width="29.58333333333333" height="32.5" as="geometry"/>
                </mxCell>
                <mxCell id="144" value="2" style="rounded=0;whiteSpace=wrap;html=1;fontSize=17;strokeWidth=2;fontStyle=1;fillColor=none;strokeColor=none;" vertex="1" parent="1">
                    <mxGeometry x="2219.1633333333334" y="205" width="29.58333333333333" height="32.5" as="geometry"/>
                </mxCell>
                <mxCell id="145" value="3" style="rounded=0;whiteSpace=wrap;html=1;fontSize=17;strokeWidth=2;fontStyle=1;fillColor=none;strokeColor=none;" vertex="1" parent="1">
                    <mxGeometry x="2219.1633333333334" y="237.5" width="29.58333333333333" height="32.5" as="geometry"/>
                </mxCell>
                <mxCell id="146" value="7" style="rounded=0;whiteSpace=wrap;html=1;fontSize=17;strokeWidth=2;fontStyle=1;fillColor=none;strokeColor=none;" vertex="1" parent="1">
                    <mxGeometry x="2278.33" y="205" width="29.58333333333333" height="32.5" as="geometry"/>
                </mxCell>
                <mxCell id="147" value="8" style="rounded=0;whiteSpace=wrap;html=1;fontSize=17;strokeWidth=2;fontStyle=1;fillColor=none;strokeColor=none;" vertex="1" parent="1">
                    <mxGeometry x="2278.33" y="237.5" width="29.58333333333333" height="32.5" as="geometry"/>
                </mxCell>
                <mxCell id="148" value="0" style="rounded=0;whiteSpace=wrap;html=1;fontSize=17;strokeWidth=2;fontStyle=1;strokeColor=none;" vertex="1" parent="1">
                    <mxGeometry x="2337.4966666666664" y="140" width="29.58333333333333" height="32.5" as="geometry"/>
                </mxCell>
                <mxCell id="149" value="1" style="rounded=0;whiteSpace=wrap;html=1;fontSize=17;strokeWidth=2;fontStyle=1;strokeColor=none;" vertex="1" parent="1">
                    <mxGeometry x="2367.08" y="140" width="29.58333333333333" height="32.5" as="geometry"/>
                </mxCell>
                <mxCell id="150" value="2" style="rounded=0;whiteSpace=wrap;html=1;fontSize=17;strokeWidth=2;fontStyle=1;strokeColor=none;" vertex="1" parent="1">
                    <mxGeometry x="2367.08" y="172.5" width="29.58333333333333" height="32.5" as="geometry"/>
                </mxCell>
                <mxCell id="151" value="3" style="rounded=0;whiteSpace=wrap;html=1;fontSize=17;strokeWidth=2;fontStyle=1;fillColor=none;strokeColor=none;" vertex="1" parent="1">
                    <mxGeometry x="2367.08" y="205" width="29.58333333333333" height="32.5" as="geometry"/>
                </mxCell>
                <mxCell id="152" value="4" style="rounded=0;whiteSpace=wrap;html=1;fontSize=17;strokeWidth=2;fontStyle=1;fillColor=none;strokeColor=none;" vertex="1" parent="1">
                    <mxGeometry x="2367.08" y="237.5" width="29.58333333333333" height="32.5" as="geometry"/>
                </mxCell>
                <mxCell id="158" value="1" style="rounded=0;whiteSpace=wrap;html=1;fontSize=17;strokeWidth=2;fontStyle=1;strokeColor=none;" vertex="1" parent="1">
                    <mxGeometry x="2337.4966666666664" y="172.5" width="29.58333333333333" height="32.5" as="geometry"/>
                </mxCell>
                <mxCell id="160" value="2" style="rounded=0;whiteSpace=wrap;html=1;fontSize=17;strokeWidth=2;fontStyle=1;fillColor=none;strokeColor=none;" vertex="1" parent="1">
                    <mxGeometry x="2337.4966666666664" y="205" width="29.58333333333333" height="32.5" as="geometry"/>
                </mxCell>
                <mxCell id="161" value="3" style="rounded=0;whiteSpace=wrap;html=1;fontSize=17;strokeWidth=2;fontStyle=1;fillColor=none;strokeColor=none;" vertex="1" parent="1">
                    <mxGeometry x="2337.4966666666664" y="237.5" width="29.58333333333333" height="32.5" as="geometry"/>
                </mxCell>
                <mxCell id="172" value="10" style="rounded=0;whiteSpace=wrap;html=1;fontSize=17;strokeWidth=2;fontStyle=1;fillColor=none;strokeColor=none;" vertex="1" parent="1">
                    <mxGeometry x="2159.996666666667" y="270" width="29.58333333333333" height="32.5" as="geometry"/>
                </mxCell>
                <mxCell id="173" value="11" style="rounded=0;whiteSpace=wrap;html=1;fontSize=17;strokeWidth=2;fontStyle=1;fillColor=none;strokeColor=none;" vertex="1" parent="1">
                    <mxGeometry x="2159.996666666667" y="302.5" width="29.58333333333333" height="32.5" as="geometry"/>
                </mxCell>
                <mxCell id="174" value="12" style="rounded=0;whiteSpace=wrap;html=1;fontSize=17;strokeWidth=2;fontStyle=1;fillColor=none;strokeColor=none;" vertex="1" parent="1">
                    <mxGeometry x="2159.996666666667" y="335" width="29.58333333333333" height="32.5" as="geometry"/>
                </mxCell>
                <mxCell id="175" value="13" style="rounded=0;whiteSpace=wrap;html=1;fontSize=17;strokeWidth=2;fontStyle=1;fillColor=none;strokeColor=none;" vertex="1" parent="1">
                    <mxGeometry x="2159.996666666667" y="367.5" width="29.58333333333333" height="32.5" as="geometry"/>
                </mxCell>
                <mxCell id="176" value="14" style="rounded=0;whiteSpace=wrap;html=1;fontSize=17;strokeWidth=2;fontStyle=1;fillColor=none;strokeColor=none;" vertex="1" parent="1">
                    <mxGeometry x="2189.58" y="367.5" width="29.58333333333333" height="32.5" as="geometry"/>
                </mxCell>
                <mxCell id="177" value="11" style="rounded=0;whiteSpace=wrap;html=1;fontSize=17;strokeWidth=2;fontStyle=1;fillColor=none;strokeColor=none;" vertex="1" parent="1">
                    <mxGeometry x="2189.58" y="270" width="29.58333333333333" height="32.5" as="geometry"/>
                </mxCell>
                <mxCell id="178" value="12" style="rounded=0;whiteSpace=wrap;html=1;fontSize=17;strokeWidth=2;fontStyle=1;fillColor=none;strokeColor=none;" vertex="1" parent="1">
                    <mxGeometry x="2189.58" y="302.5" width="29.58333333333333" height="32.5" as="geometry"/>
                </mxCell>
                <mxCell id="179" value="13" style="rounded=0;whiteSpace=wrap;html=1;fontSize=17;strokeWidth=2;fontStyle=1;fillColor=none;strokeColor=none;" vertex="1" parent="1">
                    <mxGeometry x="2189.58" y="335" width="29.58333333333333" height="32.5" as="geometry"/>
                </mxCell>
                <mxCell id="180" value="5" style="rounded=0;whiteSpace=wrap;html=1;fontSize=17;strokeWidth=2;fontStyle=1;fillColor=none;strokeColor=none;" vertex="1" parent="1">
                    <mxGeometry x="2219.1633333333334" y="270" width="29.58333333333333" height="32.5" as="geometry"/>
                </mxCell>
                <mxCell id="181" value="6" style="rounded=0;whiteSpace=wrap;html=1;fontSize=17;strokeWidth=2;fontStyle=1;fillColor=none;strokeColor=none;" vertex="1" parent="1">
                    <mxGeometry x="2248.7466666666664" y="270" width="29.58333333333333" height="32.5" as="geometry"/>
                </mxCell>
                <mxCell id="182" value="7" style="rounded=0;whiteSpace=wrap;html=1;fontSize=17;strokeWidth=2;fontStyle=1;fillColor=none;strokeColor=none;" vertex="1" parent="1">
                    <mxGeometry x="2248.7466666666664" y="302.5" width="29.58333333333333" height="32.5" as="geometry"/>
                </mxCell>
                <mxCell id="183" value="8" style="rounded=0;whiteSpace=wrap;html=1;fontSize=17;strokeWidth=2;fontStyle=1;fillColor=none;strokeColor=none;" vertex="1" parent="1">
                    <mxGeometry x="2248.7466666666664" y="335" width="29.58333333333333" height="32.5" as="geometry"/>
                </mxCell>
                <mxCell id="184" value="9" style="rounded=0;whiteSpace=wrap;html=1;fontSize=17;strokeWidth=2;fontStyle=1;fillColor=none;strokeColor=none;" vertex="1" parent="1">
                    <mxGeometry x="2248.7466666666664" y="367.5" width="29.58333333333333" height="32.5" as="geometry"/>
                </mxCell>
                <mxCell id="185" value="6" style="rounded=0;whiteSpace=wrap;html=1;fontSize=17;strokeWidth=2;fontStyle=1;fillColor=none;strokeColor=none;" vertex="1" parent="1">
                    <mxGeometry x="2219.1633333333334" y="302.5" width="29.58333333333333" height="32.5" as="geometry"/>
                </mxCell>
                <mxCell id="186" value="7" style="rounded=0;whiteSpace=wrap;html=1;fontSize=17;strokeWidth=2;fontStyle=1;fillColor=none;strokeColor=none;" vertex="1" parent="1">
                    <mxGeometry x="2219.1633333333334" y="335" width="29.58333333333333" height="32.5" as="geometry"/>
                </mxCell>
                <mxCell id="187" value="8" style="rounded=0;whiteSpace=wrap;html=1;fontSize=17;strokeWidth=2;fontStyle=1;fillColor=none;strokeColor=none;" vertex="1" parent="1">
                    <mxGeometry x="2219.1633333333334" y="367.5" width="29.58333333333333" height="32.5" as="geometry"/>
                </mxCell>
                <mxCell id="188" value="10" style="rounded=0;whiteSpace=wrap;html=1;fontSize=17;strokeWidth=2;fontStyle=1;fillColor=#FFCCCC;strokeColor=none;" vertex="1" parent="1">
                    <mxGeometry x="2278.33" y="270" width="29.58333333333333" height="32.5" as="geometry"/>
                </mxCell>
                <mxCell id="189" value="11" style="rounded=0;whiteSpace=wrap;html=1;fontSize=17;strokeWidth=2;fontStyle=1;fillColor=none;strokeColor=none;" vertex="1" parent="1">
                    <mxGeometry x="2278.33" y="302.5" width="29.58333333333333" height="32.5" as="geometry"/>
                </mxCell>
                <mxCell id="190" value="12" style="rounded=0;whiteSpace=wrap;html=1;fontSize=17;strokeWidth=2;fontStyle=1;fillColor=none;strokeColor=none;" vertex="1" parent="1">
                    <mxGeometry x="2278.33" y="335" width="29.58333333333333" height="32.5" as="geometry"/>
                </mxCell>
                <mxCell id="191" value="13" style="rounded=0;whiteSpace=wrap;html=1;fontSize=17;strokeWidth=2;fontStyle=1;fillColor=none;strokeColor=none;" vertex="1" parent="1">
                    <mxGeometry x="2278.33" y="367.5" width="29.58333333333333" height="32.5" as="geometry"/>
                </mxCell>
                <mxCell id="192" value="14" style="rounded=0;whiteSpace=wrap;html=1;fontSize=17;strokeWidth=2;fontStyle=1;fillColor=none;strokeColor=none;" vertex="1" parent="1">
                    <mxGeometry x="2307.9133333333334" y="367.5" width="29.58333333333333" height="32.5" as="geometry"/>
                </mxCell>
                <mxCell id="193" value="11" style="rounded=0;whiteSpace=wrap;html=1;fontSize=17;strokeWidth=2;fontStyle=1;fillColor=none;strokeColor=none;" vertex="1" parent="1">
                    <mxGeometry x="2307.9133333333334" y="270" width="29.58333333333333" height="32.5" as="geometry"/>
                </mxCell>
                <mxCell id="194" value="12" style="rounded=0;whiteSpace=wrap;html=1;fontSize=17;strokeWidth=2;fontStyle=1;fillColor=none;strokeColor=none;" vertex="1" parent="1">
                    <mxGeometry x="2307.9133333333334" y="302.5" width="29.58333333333333" height="32.5" as="geometry"/>
                </mxCell>
                <mxCell id="195" value="13" style="rounded=0;whiteSpace=wrap;html=1;fontSize=17;strokeWidth=2;fontStyle=1;fillColor=none;strokeColor=none;" vertex="1" parent="1">
                    <mxGeometry x="2307.9133333333334" y="335" width="29.58333333333333" height="32.5" as="geometry"/>
                </mxCell>
                <mxCell id="196" value="5" style="rounded=0;whiteSpace=wrap;html=1;fontSize=17;strokeWidth=2;fontStyle=1;fillColor=none;strokeColor=none;" vertex="1" parent="1">
                    <mxGeometry x="2337.4966666666664" y="270" width="29.58333333333333" height="32.5" as="geometry"/>
                </mxCell>
                <mxCell id="197" value="6" style="rounded=0;whiteSpace=wrap;html=1;fontSize=17;strokeWidth=2;fontStyle=1;fillColor=none;strokeColor=none;" vertex="1" parent="1">
                    <mxGeometry x="2367.08" y="270" width="29.58333333333333" height="32.5" as="geometry"/>
                </mxCell>
                <mxCell id="198" value="7" style="rounded=0;whiteSpace=wrap;html=1;fontSize=17;strokeWidth=2;fontStyle=1;fillColor=none;strokeColor=none;" vertex="1" parent="1">
                    <mxGeometry x="2367.08" y="302.5" width="29.58333333333333" height="32.5" as="geometry"/>
                </mxCell>
                <mxCell id="199" value="8" style="rounded=0;whiteSpace=wrap;html=1;fontSize=17;strokeWidth=2;fontStyle=1;fillColor=none;strokeColor=none;" vertex="1" parent="1">
                    <mxGeometry x="2367.08" y="335" width="29.58333333333333" height="32.5" as="geometry"/>
                </mxCell>
                <mxCell id="200" value="9" style="rounded=0;whiteSpace=wrap;html=1;fontSize=17;strokeWidth=2;fontStyle=1;fillColor=none;strokeColor=none;" vertex="1" parent="1">
                    <mxGeometry x="2367.08" y="367.5" width="29.58333333333333" height="32.5" as="geometry"/>
                </mxCell>
                <mxCell id="201" value="6" style="rounded=0;whiteSpace=wrap;html=1;fontSize=17;strokeWidth=2;fontStyle=1;fillColor=none;strokeColor=none;" vertex="1" parent="1">
                    <mxGeometry x="2337.4966666666664" y="302.5" width="29.58333333333333" height="32.5" as="geometry"/>
                </mxCell>
                <mxCell id="202" value="7" style="rounded=0;whiteSpace=wrap;html=1;fontSize=17;strokeWidth=2;fontStyle=1;fillColor=none;strokeColor=none;" vertex="1" parent="1">
                    <mxGeometry x="2337.4966666666664" y="335" width="29.58333333333333" height="32.5" as="geometry"/>
                </mxCell>
                <mxCell id="203" value="8" style="rounded=0;whiteSpace=wrap;html=1;fontSize=17;strokeWidth=2;fontStyle=1;fillColor=none;strokeColor=none;" vertex="1" parent="1">
                    <mxGeometry x="2337.4966666666664" y="367.5" width="29.58333333333333" height="32.5" as="geometry"/>
                </mxCell>
                <mxCell id="212" value="" style="rounded=0;whiteSpace=wrap;html=1;fontSize=17;fontColor=#0000FF;fillColor=none;strokeWidth=3;strokeColor=#FF0000;dashed=1;" vertex="1" parent="1">
                    <mxGeometry x="2219.09" y="205.5" width="88.9" height="97" as="geometry"/>
                </mxCell>
                <mxCell id="213" value="" style="rounded=0;whiteSpace=wrap;html=1;fontSize=17;fontColor=#0000FF;fillColor=none;strokeWidth=3;strokeColor=#FF0000;dashed=1;" vertex="1" parent="1">
                    <mxGeometry x="2248.7500000000005" y="205.5" width="88.9" height="97" as="geometry"/>
                </mxCell>
                <mxCell id="220" style="edgeStyle=none;html=1;entryX=0.5;entryY=0;entryDx=0;entryDy=0;" edge="1" parent="1" target="216">
                    <mxGeometry relative="1" as="geometry">
                        <mxPoint x="2110" y="290" as="sourcePoint"/>
                        <Array as="points">
                            <mxPoint x="2130" y="290"/>
                            <mxPoint x="2130" y="410"/>
                            <mxPoint x="1964" y="410"/>
                        </Array>
                    </mxGeometry>
                </mxCell>
                <mxCell id="215" value="" style="shape=curlyBracket;whiteSpace=wrap;html=1;rounded=1;flipH=1;strokeColor=#000000;strokeWidth=1;" vertex="1" parent="1">
                    <mxGeometry x="2082.65" y="205" width="20" height="170" as="geometry"/>
                </mxCell>
                <mxCell id="216" value="(y+ky)-KY&amp;lt;y'&amp;lt;=(y+ky)" style="text;strokeColor=none;fillColor=none;html=1;fontSize=24;fontStyle=1;verticalAlign=middle;align=center;" vertex="1" parent="1">
                    <mxGeometry x="1834.3200000000002" y="430" width="260" height="70" as="geometry"/>
                </mxCell>
                <mxCell id="217" value="" style="rounded=0;whiteSpace=wrap;html=1;fontSize=17;fontColor=#0000FF;fillColor=none;strokeWidth=3;strokeColor=#FF0000;dashed=1;" vertex="1" parent="1">
                    <mxGeometry x="2278.1800000000003" y="205.25" width="88.9" height="97" as="geometry"/>
                </mxCell>
                <mxCell id="218" value="" style="shape=curlyBracket;whiteSpace=wrap;html=1;rounded=1;flipH=1;strokeColor=#000000;strokeWidth=1;rotation=90;" vertex="1" parent="1">
                    <mxGeometry x="2283.12" y="345" width="20" height="160" as="geometry"/>
                </mxCell>
                <mxCell id="219" value="(x+kx)-KX&amp;lt;x'&amp;lt;=(x+ky)" style="text;strokeColor=none;fillColor=none;html=1;fontSize=24;fontStyle=1;verticalAlign=middle;align=center;" vertex="1" parent="1">
                    <mxGeometry x="2163.12" y="430" width="260" height="70" as="geometry"/>
                </mxCell>
                <mxCell id="221" value="Verticle Reuse" style="text;strokeColor=none;fillColor=none;html=1;fontSize=24;fontStyle=1;verticalAlign=middle;align=center;" vertex="1" parent="1">
                    <mxGeometry x="1914.32" y="80" width="100" height="40" as="geometry"/>
                </mxCell>
                <mxCell id="222" value="Horizontal Reuse" style="text;strokeColor=none;fillColor=none;html=1;fontSize=24;fontStyle=1;verticalAlign=middle;align=center;" vertex="1" parent="1">
                    <mxGeometry x="2237.6499999999996" y="80" width="100" height="40" as="geometry"/>
                </mxCell>
            </root>
        </mxGraphModel>
    </diagram>
</mxfile>